<svg xmlns="http://www.w3.org/2000/svg" width="64" height="64" viewBox="0 0 64 64">
  <rect width="64" height="64" rx="14" fill="#0F1117"/>
  <path d="M32 52c0-10 0-14-6-20-5-5-14-6-14-6s1 9 6 14c5 5 9 5 14 6" fill="none" stroke="#34D399" stroke-width="3" stroke-linecap="round" stroke-linejoin="round"/>
  <path d="M32 52c0-10 0-14 6-20 5-5 14-6 14-6s-1 9-6 14c-5 5-9 5-14 6" fill="none" stroke="#34D399" stroke-width="3" stroke-linecap="round" stroke-linejoin="round"/>
  <path d="M32 52V28c0-6 2-12 4-16" fill="none" stroke="#34D399" stroke-width="3" stroke-linecap="round" stroke-linejoin="round"/>
</svg>
